{"glyphs":{" ":{"ha":345,"x_min":0,"x_max":0,"o":""},"#":{"ha":12035,"x_min":3,"x_max":12032,"o":"m 962 457 l 1432 457 q 1294 387 1326 430 q 1284 349 1278 365 l 1284 -159 q 835 -261 1157 -261 q 258 -86 473 -261 q 12 503 12 113 q 96 856 3 680 q 789 1208 282 1208 q 1299 1147 1197 1178 l 1249 822 q 1172 983 1235 903 q 804 1144 1046 1144 q 343 974 512 1144 q 173 500 173 802 q 407 11 173 212 q 884 -174 623 -174 q 1110 -106 1030 -180 l 1110 349 q 1100 387 1116 365 q 962 457 1068 430 m 1717 448 l 1979 447 l 1850 831 l 1717 448 m 2266 68 q 2341 -4 2289 23 q 2387 -22 2366 -18 l 2050 -22 q 2132 29 2075 13 l 1995 382 l 1701 382 l 1588 45 q 1630 -7 1588 15 q 1670 -22 1650 -18 l 1358 -22 q 1466 33 1426 -13 q 1493 76 1486 55 l 1858 1044 q 2266 68 2230 139 m 3556 1032 l 3715 75 q 3762 1 3718 33 q 3805 -22 3784 -15 l 3503 -22 q 3545 1 3524 -15 q 3592 75 3589 33 l 3592 109 l 3470 638 l 3116 -1 l 3115 -2 l 3115 -1 l 3114 -1 l 3110 2 l 2759 663 l 2686 121 l 2686 87 q 2732 13 2689 45 q 2776 -9 2755 -3 l 2473 -9 q 2516 13 2494 -3 q 2563 87 2559 45 l 2686 1044 l 3114 165 l 3556 1032 m 4298 21 q 4437 92 4372 21 q 4487 162 4469 127 l 4465 -22 l 3896 -22 q 3942 3 3919 -14 q 3988 83 3988 37 q 3986 953 3988 157 q 3878 1025 3963 1001 l 4425 1025 l 4465 1044 l 4425 850 q 4408 907 4423 878 q 4314 966 4378 966 l 4111 966 l 4111 567 l 4333 567 q 4440 602 4399 568 l 4414 393 q 4396 450 4413 422 q 4281 507 4361 507 l 4111 507 l 4111 111 q 4160 66 4128 88 q 4298 21 4224 21 m 5212 703 l 5212 241 q 5309 296 5271 254 q 5364 465 5364 355 q 5309 640 5364 575 q 5212 703 5271 685 m 5196 239 l 5196 708 q 5175 711 5185 710 l 5175 237 q 5196 239 5185 237 m 5149 238 l 5149 711 q 5132 708 5141 710 l 5132 241 q 5149 238 5141 239 m 5116 245 l 5116 705 q 5019 644 5056 688 q 4966 475 4966 583 q 5019 307 4966 369 q 5116 245 5056 263 m 5174 741 q 5343 665 5265 741 q 5429 465 5429 583 q 5341 275 5429 350 q 5174 211 5264 211 q 4997 267 5075 211 q 4900 467 4900 338 q 5037 712 4900 648 q 5174 741 5105 744 m 5653 701 l 5552 701 l 5552 503 l 5663 503 q 5716 521 5695 504 l 5702 417 q 5693 446 5702 431 q 5636 473 5676 473 l 5552 473 l 5552 277 l 5551 269 l 5551 260 q 5575 222 5554 238 q 5597 211 5586 214 l 5445 211 q 5467 222 5456 214 q 5490 260 5488 238 l 5490 421 l 5490 421 q 5490 695 5490 545 q 5436 731 5478 719 l 5707 731 l 5728 741 l 5707 644 q 5699 673 5707 658 q 5653 701 5684 701 m 11504 1358 l 11452 1106 q 11431 1181 11450 1143 q 11308 1256 11392 1256 l 6453 1256 l 6453 1240 q 6451 526 6452 848 l 6451 105 q 6512 8 6455 50 q 6569 -22 6541 -13 l 6173 -22 q 6229 8 6200 -13 q 6291 105 6286 50 l 6291 526 q 6289 1240 6290 848 l 6289 1256 l 6028 1256 q 5906 1181 5945 1256 q 5884 1106 5887 1143 l 5832 1358 l 5884 1334 l 11452 1334 l 11504 1358 m 7500 946 l 7500 77 q 7547 1 7503 33 q 7591 -22 7569 -15 l 7285 -22 q 7328 1 7307 -15 q 7376 77 7372 33 l 7376 526 l 6789 526 l 6789 77 q 6837 1 6793 33 q 6880 -22 6858 -15 l 6574 -22 q 6618 1 6596 -15 q 6665 77 6662 33 l 6665 946 q 6618 1021 6662 989 q 6574 1044 6596 1037 l 6880 1044 q 6837 1021 6858 1037 q 6789 946 6793 989 l 6789 600 l 7376 600 l 7376 946 q 7328 1021 7372 989 q 7285 1044 7307 1037 l 7591 1044 q 7547 1021 7569 1037 q 7500 946 7503 989 m 7865 507 l 8043 507 q 8116 536 8080 509 q 8188 715 8188 589 q 8114 932 8188 853 q 7977 996 8053 996 q 7893 991 7902 996 q 7869 925 7869 981 q 7865 507 7869 842 m 8274 320 q 8432 121 8365 188 q 8655 24 8554 2 q 8628 1 8651 12 q 8493 -22 8583 -22 q 8276 132 8404 -22 q 8166 286 8212 209 q 8097 359 8145 322 q 7865 433 8002 433 l 7865 76 q 7912 1 7868 33 q 7955 -22 7934 -15 l 7652 -22 q 7694 1 7673 -15 q 7742 76 7739 33 l 7742 939 q 7694 1015 7739 983 q 7652 1038 7673 1030 l 7865 1038 q 8089 1033 7977 1056 q 8313 781 8313 987 q 8299 686 8317 743 q 8152 472 8261 570 q 8274 320 8205 422 m 9148 970 l 9148 39 q 9345 149 9269 65 q 9454 490 9454 269 q 9345 841 9454 711 q 9148 970 9269 932 m 9117 34 l 9117 979 q 9075 986 9095 983 l 9075 31 q 9117 34 9096 31 m 9022 33 l 9022 985 q 8987 979 9005 983 l 8987 39 q 9022 33 9006 35 m 8955 47 l 8955 972 q 8761 850 8836 938 q 8654 511 8654 726 q 8761 171 8654 296 q 8955 47 8836 83 m 9071 1044 q 9413 893 9256 1044 q 9587 490 9587 727 q 9408 108 9587 258 q 9071 -22 9253 -22 q 8717 91 8873 -22 q 8521 494 8521 233 q 8796 987 8521 857 q 9071 1044 8934 1052 m 10405 1044 l 10711 1044 q 10668 1021 10689 1037 q 10620 945 10624 989 l 10620 -22 l 10619 -21 l 10619 -22 l 9844 783 l 9844 77 q 9892 1 9848 33 q 9935 -22 9913 -15 l 9629 -22 q 9673 1 9650 -15 q 9720 77 9717 33 l 9720 1044 l 10496 230 l 10496 945 q 10449 1021 10493 989 q 10405 1044 10426 1037 m 11203 20 q 11340 90 11277 20 q 11389 159 11372 124 l 11367 -22 l 10808 -22 q 10853 2 10830 -14 q 10897 81 10897 36 q 10896 954 10897 155 q 10790 1026 10873 1002 l 11328 1026 l 11367 1044 l 11328 852 q 11312 909 11326 881 q 11218 966 11282 966 l 11020 966 l 11020 557 l 11239 557 q 11343 593 11302 559 l 11317 387 q 11300 443 11317 415 q 11186 498 11266 498 l 11020 498 l 11020 109 q 11067 64 11036 87 q 11203 20 11130 20 m 11805 606 q 11953 471 11916 515 q 12032 286 12032 380 q 11897 49 12032 138 q 11671 -22 11789 -22 q 11540 16 11595 -22 q 11499 54 11512 35 q 11515 243 11490 131 q 11591 87 11515 140 q 11721 46 11648 46 q 11853 90 11787 46 q 11930 214 11930 142 q 11868 363 11930 286 q 11719 511 11829 413 q 11572 659 11612 606 q 11513 815 11513 736 q 11588 973 11513 908 q 11797 1044 11669 1044 q 11965 1024 11908 1044 q 12000 1004 11993 1014 l 11967 819 q 11928 927 11967 874 q 11801 994 11880 994 q 11667 958 11713 994 q 11622 860 11622 923 q 11805 606 11622 756 "},"A":{"ha":1348,"x_min":3,"x_max":1344,"o":"m 472 612 l 812 610 l 645 1080 l 472 612 m 1344 0 l 905 0 q 1012 66 937 45 l 833 527 l 450 527 l 304 88 q 357 20 304 48 q 410 0 384 6 l 3 0 q 144 71 92 12 q 179 127 170 100 l 655 1389 q 1187 117 1139 210 q 1284 24 1217 59 q 1344 0 1317 6 "},"B":{"ha":857,"x_min":3,"x_max":854,"o":"m 448 63 q 626 146 547 63 q 723 429 723 249 q 628 663 723 593 q 534 699 581 697 l 286 699 q 291 155 291 263 q 330 68 291 83 q 448 63 345 63 m 291 1234 q 286 800 291 1126 l 534 800 q 612 846 573 814 q 691 1009 691 911 q 610 1267 691 1187 q 448 1326 549 1326 q 330 1320 345 1326 q 291 1234 291 1306 m 639 745 q 830 467 782 617 q 849 343 854 392 q 680 56 849 141 q 382 0 563 -3 l 3 0 q 24 9 12 3 l 3 0 q 60 35 31 12 q 121 136 117 81 l 121 1253 q 60 1354 117 1308 q 3 1389 31 1377 l 24 1380 q 3 1389 12 1386 l 328 1389 q 620 1350 522 1386 q 801 1095 801 1283 q 639 754 771 855 q 633 750 637 752 q 639 745 637 747 "},"C":{"ha":1231,"x_min":3,"x_max":1227,"o":"m 1227 108 l 1192 315 q 954 116 1092 178 q 836 82 885 85 q 385 257 589 82 q 163 720 163 447 q 325 1167 163 1004 q 760 1327 484 1327 q 1107 1175 989 1327 q 1181 1023 1167 1099 l 1227 1331 q 745 1389 1131 1360 q 91 1055 267 1389 q 12 722 3 889 q 229 178 12 366 q 745 1 419 12 l 745 1 q 745 1 745 1 q 789 0 768 0 q 1122 54 979 0 q 1227 108 1194 81 "},"D":{"ha":1327,"x_min":3,"x_max":1324,"o":"m 509 80 q 951 262 749 80 q 1167 724 1167 456 q 1009 1162 1167 1003 q 584 1319 854 1319 q 300 1228 412 1319 l 300 143 q 509 80 375 75 m 3 1389 l 599 1389 q 1238 1058 1067 1389 q 1316 727 1324 892 q 1089 172 1316 364 q 555 0 886 0 l 3 0 l 73 23 q 140 86 134 51 l 140 1289 q 131 1324 146 1304 q 3 1389 102 1364 "},"E":{"ha":800,"x_min":3,"x_max":796,"o":"m 716 1364 l 3 1364 q 144 1270 114 1333 q 146 137 146 233 q 87 32 146 77 q 28 0 57 10 l 768 0 l 796 239 q 732 148 774 194 q 551 56 648 56 q 371 115 454 56 q 307 173 330 144 l 307 688 l 529 688 q 678 615 633 688 q 702 541 701 578 l 736 813 q 597 767 682 769 l 307 767 l 307 1286 l 571 1286 q 694 1211 655 1286 q 716 1135 713 1173 l 768 1389 l 716 1364 "},"F":{"ha":772,"x_min":3,"x_max":768,"o":"m 307 767 l 597 767 q 736 813 682 769 l 702 541 q 678 615 701 578 q 529 688 633 688 l 307 688 l 307 173 l 307 151 l 307 128 q 368 31 311 72 q 425 0 397 9 l 27 0 q 83 31 55 9 q 145 128 140 72 l 145 551 l 146 551 q 144 1270 145 876 q 3 1364 114 1333 l 716 1364 l 768 1389 l 716 1135 q 694 1211 713 1173 q 571 1286 655 1286 l 307 1286 l 307 767 "},"G":{"ha":1357,"x_min":3,"x_max":1354,"o":"m 1050 576 l 1050 146 q 836 82 973 76 q 385 257 589 82 q 163 720 163 447 q 325 1167 163 1004 q 760 1328 484 1328 q 1107 1175 989 1328 q 1181 1023 1167 1099 l 1228 1331 q 745 1389 1131 1360 q 91 1055 267 1389 q 12 722 3 889 q 243 165 12 353 q 789 0 447 0 q 1116 48 979 0 q 1213 96 1183 73 l 1213 576 q 1223 612 1208 591 q 1354 678 1253 653 l 909 678 q 1040 612 1010 653 q 1050 576 1055 591 "},"H":{"ha":1331,"x_min":3,"x_max":1327,"o":"m 1209 1261 l 1209 128 q 1271 31 1213 72 q 1327 0 1299 9 l 929 0 q 986 31 957 9 q 1047 128 1043 72 l 1047 713 l 283 713 l 283 128 q 345 31 288 72 q 401 0 374 9 l 3 0 q 60 31 31 9 q 121 128 117 72 l 121 1261 q 60 1358 117 1317 q 3 1389 31 1379 l 401 1389 q 345 1358 374 1379 q 283 1261 288 1317 l 283 810 l 1047 810 l 1047 1261 q 986 1358 1043 1317 q 929 1389 957 1379 l 1327 1389 q 1271 1358 1299 1379 q 1209 1261 1213 1317 "},"I":{"ha":405,"x_min":3,"x_max":401,"o":"m 283 1261 l 283 128 q 345 31 288 72 q 401 0 374 9 l 3 0 q 60 31 31 9 q 121 128 117 72 l 121 1261 q 60 1358 117 1317 q 3 1389 31 1379 l 401 1389 q 345 1358 374 1379 q 283 1261 288 1317 "},"J":{"ha":568,"x_min":3,"x_max":565,"o":"m 447 1261 l 447 209 q 419 103 448 156 q 216 0 362 -1 q 39 30 98 0 q 3 60 9 45 q 208 85 144 31 q 285 248 256 126 l 285 1261 q 223 1358 281 1317 q 167 1389 195 1379 l 565 1389 q 509 1358 537 1379 q 447 1261 451 1317 "},"K":{"ha":1327,"x_min":3,"x_max":1324,"o":"m 475 786 l 1047 207 q 1324 5 1194 37 l 939 5 q 972 12 958 5 q 972 68 1000 28 l 370 683 l 283 597 l 283 128 q 345 31 288 72 q 401 0 374 9 l 3 0 q 60 31 31 9 q 121 128 117 72 l 121 1261 q 60 1358 117 1317 q 3 1389 31 1379 l 401 1389 q 287 1282 308 1357 l 284 804 l 804 1317 q 811 1380 839 1362 q 776 1389 797 1389 l 1161 1389 q 884 1187 1031 1356 l 475 786 "},"L":{"ha":814,"x_min":3,"x_max":810,"o":"m 310 1293 q 308 139 308 237 l 313 1297 q 310 1293 311 1294 m 561 58 q 745 151 659 58 q 810 243 787 197 l 782 0 l 28 0 q 88 33 58 10 q 149 139 149 78 q 146 1293 149 237 q 3 1389 116 1356 l 454 1389 q 313 1297 351 1359 l 313 176 q 378 117 335 146 q 561 58 462 58 "},"M":{"ha":1742,"x_min":3,"x_max":1737,"o":"m 840 28 l 839 26 l 839 27 l 838 27 l 833 32 l 376 892 l 280 187 l 280 143 q 341 46 285 87 q 397 16 370 25 l 3 16 q 59 46 31 25 q 120 143 116 87 l 279 1389 l 838 260 l 1414 1373 l 1621 127 q 1682 30 1625 71 q 1737 0 1710 9 l 1344 0 q 1400 30 1371 9 q 1461 127 1457 71 l 1461 172 l 1301 861 l 840 28 "},"N":{"ha":1415,"x_min":3,"x_max":1412,"o":"m 1014 1389 l 1412 1389 q 1356 1358 1384 1379 q 1294 1261 1298 1317 l 1294 0 l 1293 1 l 1293 0 l 283 1048 l 283 128 q 345 31 288 72 q 401 0 374 9 l 3 0 q 60 31 31 9 q 121 128 117 72 l 121 1389 l 1132 328 l 1132 1261 q 1070 1358 1128 1317 q 1014 1389 1042 1379 "},"O":{"ha":1396,"x_min":3,"x_max":1392,"o":"m 821 1292 l 821 80 q 1078 223 978 113 q 1219 667 1219 378 q 1078 1124 1219 956 q 821 1292 978 1244 m 177 694 q 315 252 177 414 q 570 91 414 136 l 570 1295 q 315 1136 414 1250 q 177 694 177 975 m 725 1313 l 725 68 q 780 73 751 69 l 780 1303 q 725 1313 752 1310 m 656 72 l 656 1312 q 611 1305 633 1310 l 611 80 q 656 72 635 75 m 720 1388 q 1166 1192 960 1388 q 1392 667 1392 976 q 1159 169 1392 364 q 720 0 958 0 q 259 147 463 0 q 3 671 3 332 q 362 1314 3 1145 q 720 1388 541 1399 "},"P":{"ha":873,"x_min":3,"x_max":870,"o":"m 281 690 l 513 690 q 608 726 561 692 q 703 960 703 795 q 606 1242 703 1140 q 428 1326 526 1326 q 317 1320 330 1326 q 287 1234 287 1308 q 281 690 287 1126 m 654 644 q 593 618 645 631 q 281 593 490 593 l 281 127 q 342 30 286 71 q 399 0 371 9 l 3 0 q 60 30 31 9 q 121 127 117 71 l 121 1253 q 60 1350 117 1308 q 3 1380 31 1371 l 281 1380 q 573 1374 427 1404 q 865 1046 865 1314 q 846 922 870 997 q 654 644 798 772 "},"Q":{"ha":1396,"x_min":3,"x_max":1392,"o":"m 780 73 l 821 80 q 1010 162 928 102 q 878 224 930 211 q 1101 252 981 328 q 1219 667 1219 404 q 1078 1124 1219 956 q 821 1292 978 1244 l 780 1303 q 725 1313 752 1310 l 656 1312 q 611 1305 633 1310 l 570 1295 q 315 1136 414 1250 q 177 694 177 975 q 315 252 177 414 q 570 91 414 136 l 611 80 q 656 72 635 75 l 725 68 q 780 73 758 70 m 1175 182 q 1306 61 1232 100 q 1369 39 1343 42 q 1276 1 1310 1 q 1124 80 1217 2 q 1082 113 1106 95 q 720 0 905 0 q 259 147 463 0 q 3 671 3 332 q 362 1314 3 1145 q 720 1388 541 1399 q 1166 1192 960 1388 q 1392 667 1392 976 q 1175 182 1392 376 "},"R":{"ha":1314,"x_min":3,"x_max":1311,"o":"m 281 690 l 513 690 q 608 726 561 692 q 703 960 703 795 q 606 1242 703 1140 q 428 1326 526 1326 q 317 1320 330 1326 q 287 1234 287 1308 q 281 690 287 1126 m 814 446 q 1021 186 932 273 q 1311 59 1179 32 q 1275 30 1305 45 q 1100 0 1217 0 q 817 200 983 0 q 673 401 733 300 q 585 496 647 449 q 281 593 460 593 l 281 127 q 342 30 286 71 q 399 0 371 9 l 3 0 q 60 30 31 9 q 121 127 117 71 l 121 1253 q 60 1350 117 1308 q 3 1380 31 1371 l 281 1380 q 573 1374 427 1404 q 865 1046 865 1314 q 846 922 870 997 q 654 644 798 772 q 814 446 724 579 "},"S":{"ha":712,"x_min":3,"x_max":709,"o":"m 36 345 q 134 142 36 212 q 303 89 208 89 q 475 146 389 89 q 575 308 575 213 q 495 503 575 401 q 300 694 444 567 q 110 886 161 819 q 33 1090 33 987 q 130 1297 33 1211 q 402 1389 235 1389 q 621 1362 547 1389 q 666 1336 659 1350 l 623 1096 q 574 1236 623 1167 q 407 1322 511 1322 q 233 1276 293 1322 q 175 1149 175 1231 q 412 818 175 1013 q 606 643 557 699 q 709 401 709 524 q 533 92 709 208 q 239 0 393 0 q 68 50 140 0 q 15 100 31 75 q 36 345 3 199 "},"T":{"ha":1090,"x_min":3,"x_max":1087,"o":"m 1035 1364 l 1087 1389 l 1035 1135 q 1013 1211 1032 1173 q 890 1286 974 1286 l 627 1286 l 627 1270 q 626 551 627 876 l 626 128 q 688 31 630 72 q 744 0 716 9 l 346 0 q 403 31 374 9 q 465 128 460 72 l 465 551 q 463 1270 464 876 l 463 1286 l 201 1286 q 77 1211 117 1286 q 56 1135 58 1173 l 3 1389 l 56 1364 l 1035 1364 "},"U":{"ha":1389,"x_min":3,"x_max":1385,"o":"m 992 1389 l 1385 1389 q 1331 1360 1359 1379 q 1270 1264 1274 1319 l 1270 649 q 1090 165 1270 348 q 711 0 930 0 q 310 143 475 0 q 109 654 109 319 l 109 1270 q 50 1367 98 1331 q 3 1389 26 1384 l 397 1389 q 341 1359 370 1379 q 280 1262 285 1318 l 279 844 l 278 676 q 565 88 278 172 l 604 78 q 649 71 627 73 l 715 66 q 769 71 747 68 l 809 78 q 1011 217 941 106 q 1100 649 1100 359 l 1100 1237 q 1046 1361 1100 1316 q 992 1389 1019 1383 "},"V":{"ha":1385,"x_min":3,"x_max":1381,"o":"m 979 1389 l 1381 1389 q 1334 1366 1359 1383 q 1274 1268 1284 1331 l 692 0 l 687 12 l 687 0 l 110 1268 q 50 1366 100 1331 q 3 1389 26 1383 l 406 1389 q 349 1358 377 1379 q 286 1261 290 1317 l 692 323 l 1099 1261 q 1037 1358 1095 1317 q 979 1389 1008 1379 "},"W":{"ha":2074,"x_min":3,"x_max":2070,"o":"m 1381 323 l 1121 924 l 1037 1134 l 954 924 l 692 323 l 286 1261 q 349 1358 290 1317 q 406 1389 377 1379 l 3 1389 q 50 1366 26 1383 q 110 1268 100 1331 l 687 0 l 687 12 l 692 0 l 1037 744 l 1381 0 l 1387 12 l 1387 0 l 1964 1268 q 2024 1366 1974 1331 q 2070 1389 2048 1383 l 1669 1389 q 1726 1358 1697 1379 q 1788 1261 1784 1317 l 1381 323 "},"X":{"ha":1137,"x_min":3,"x_max":1134,"o":"m 661 732 l 1026 121 q 1086 23 1037 58 q 1134 0 1111 5 l 764 0 q 851 129 844 38 l 658 419 l 568 574 l 479 419 l 286 129 q 349 31 290 72 q 406 0 377 9 l 3 0 q 51 23 26 5 q 111 121 100 58 l 484 721 l 192 1268 q 132 1366 181 1331 q 84 1389 106 1383 l 486 1389 q 429 1358 458 1379 q 367 1261 371 1317 l 576 884 l 576 882 l 577 884 l 770 1261 q 708 1358 766 1317 q 651 1389 680 1379 l 1053 1389 q 1006 1366 1030 1383 q 945 1268 956 1331 l 661 732 "},"Y":{"ha":1125,"x_min":3,"x_max":1122,"o":"m 720 1389 l 1122 1389 q 1074 1366 1099 1383 q 1015 1268 1025 1331 l 644 678 l 644 128 q 705 31 648 72 q 762 0 734 9 l 363 0 q 420 31 391 9 q 481 128 477 72 l 481 672 l 110 1268 q 50 1366 100 1331 q 3 1389 26 1383 l 405 1389 q 348 1358 377 1379 q 286 1261 290 1317 l 563 792 l 840 1261 q 777 1358 836 1317 q 720 1389 749 1379 "},"Z":{"ha":933,"x_min":3,"x_max":930,"o":"m 930 1389 l 878 1291 l 213 80 l 635 80 q 760 157 721 80 q 782 233 780 195 l 836 0 l 782 0 l 82 0 l 3 0 l 92 172 l 689 1309 l 262 1309 q 137 1232 176 1309 q 115 1156 117 1194 l 62 1389 l 930 1389 "},"a":{"ha":1348,"x_min":3,"x_max":1344,"o":"m 472 612 l 812 610 l 645 1080 l 472 612 m 1344 0 l 905 0 q 1012 66 937 45 l 833 527 l 450 527 l 304 88 q 357 20 304 48 q 410 0 384 6 l 3 0 q 144 71 92 12 q 179 127 170 100 l 655 1389 q 1187 117 1139 210 q 1284 24 1217 59 q 1344 0 1317 6 "},"b":{"ha":857,"x_min":3,"x_max":854,"o":"m 448 63 q 626 146 547 63 q 723 429 723 249 q 628 663 723 593 q 534 699 581 697 l 286 699 q 291 155 291 263 q 330 68 291 83 q 448 63 345 63 m 291 1234 q 286 800 291 1126 l 534 800 q 612 846 573 814 q 691 1009 691 911 q 610 1267 691 1187 q 448 1326 549 1326 q 330 1320 345 1326 q 291 1234 291 1306 m 639 745 q 830 467 782 617 q 849 343 854 392 q 680 56 849 141 q 382 0 563 -3 l 3 0 q 24 9 12 3 l 3 0 q 60 35 31 12 q 121 136 117 81 l 121 1253 q 60 1354 117 1308 q 3 1389 31 1377 l 24 1380 q 3 1389 12 1386 l 328 1389 q 620 1350 522 1386 q 801 1095 801 1283 q 639 754 771 855 q 633 750 637 752 q 639 745 637 747 "},"c":{"ha":1231,"x_min":3,"x_max":1227,"o":"m 1227 108 l 1192 315 q 954 116 1092 178 q 836 82 885 85 q 385 257 589 82 q 163 720 163 447 q 325 1167 163 1004 q 760 1327 484 1327 q 1107 1175 989 1327 q 1181 1023 1167 1099 l 1227 1331 q 745 1389 1131 1360 q 91 1055 267 1389 q 12 722 3 889 q 229 178 12 366 q 745 1 419 12 l 745 1 q 745 1 745 1 q 789 0 768 0 q 1122 54 979 0 q 1227 108 1194 81 "},"d":{"ha":1327,"x_min":3,"x_max":1324,"o":"m 509 80 q 951 262 749 80 q 1167 724 1167 456 q 1009 1162 1167 1003 q 584 1319 854 1319 q 300 1228 412 1319 l 300 143 q 509 80 375 75 m 3 1389 l 599 1389 q 1238 1058 1067 1389 q 1316 727 1324 892 q 1089 172 1316 364 q 555 0 886 0 l 3 0 l 73 23 q 140 86 134 51 l 140 1289 q 131 1324 146 1304 q 3 1389 102 1364 "},"e":{"ha":800,"x_min":3,"x_max":796,"o":"m 716 1364 l 3 1364 q 144 1270 114 1333 q 146 137 146 233 q 87 32 146 77 q 28 0 57 10 l 768 0 l 796 239 q 732 148 774 194 q 551 56 648 56 q 371 115 454 56 q 307 173 330 144 l 307 688 l 529 688 q 678 615 633 688 q 702 541 701 578 l 736 813 q 597 767 682 769 l 307 767 l 307 1286 l 571 1286 q 694 1211 655 1286 q 716 1135 713 1173 l 768 1389 l 716 1364 "},"f":{"ha":772,"x_min":3,"x_max":768,"o":"m 307 767 l 597 767 q 736 813 682 769 l 702 541 q 678 615 701 578 q 529 688 633 688 l 307 688 l 307 173 l 307 151 l 307 128 q 368 31 311 72 q 425 0 397 9 l 27 0 q 83 31 55 9 q 145 128 140 72 l 145 551 l 146 551 q 144 1270 145 876 q 3 1364 114 1333 l 716 1364 l 768 1389 l 716 1135 q 694 1211 713 1173 q 571 1286 655 1286 l 307 1286 l 307 767 "},"g":{"ha":1357,"x_min":3,"x_max":1354,"o":"m 1050 576 l 1050 146 q 836 82 973 76 q 385 257 589 82 q 163 720 163 447 q 325 1167 163 1004 q 760 1328 484 1328 q 1107 1175 989 1328 q 1181 1023 1167 1099 l 1228 1331 q 745 1389 1131 1360 q 91 1055 267 1389 q 12 722 3 889 q 243 165 12 353 q 789 0 447 0 q 1116 48 979 0 q 1213 96 1183 73 l 1213 576 q 1223 612 1208 591 q 1354 678 1253 653 l 909 678 q 1040 612 1010 653 q 1050 576 1055 591 "},"h":{"ha":1331,"x_min":3,"x_max":1327,"o":"m 1209 1261 l 1209 128 q 1271 31 1213 72 q 1327 0 1299 9 l 929 0 q 986 31 957 9 q 1047 128 1043 72 l 1047 713 l 283 713 l 283 128 q 345 31 288 72 q 401 0 374 9 l 3 0 q 60 31 31 9 q 121 128 117 72 l 121 1261 q 60 1358 117 1317 q 3 1389 31 1379 l 401 1389 q 345 1358 374 1379 q 283 1261 288 1317 l 283 810 l 1047 810 l 1047 1261 q 986 1358 1043 1317 q 929 1389 957 1379 l 1327 1389 q 1271 1358 1299 1379 q 1209 1261 1213 1317 "},"i":{"ha":405,"x_min":3,"x_max":401,"o":"m 283 1261 l 283 128 q 345 31 288 72 q 401 0 374 9 l 3 0 q 60 31 31 9 q 121 128 117 72 l 121 1261 q 60 1358 117 1317 q 3 1389 31 1379 l 401 1389 q 345 1358 374 1379 q 283 1261 288 1317 "},"j":{"ha":568,"x_min":3,"x_max":565,"o":"m 447 1261 l 447 209 q 419 103 448 156 q 216 0 362 -1 q 39 30 98 0 q 3 60 9 45 q 208 85 144 31 q 285 248 256 126 l 285 1261 q 223 1358 281 1317 q 167 1389 195 1379 l 565 1389 q 509 1358 537 1379 q 447 1261 451 1317 "},"k":{"ha":1327,"x_min":3,"x_max":1324,"o":"m 475 786 l 1047 207 q 1324 5 1194 37 l 939 5 q 972 12 958 5 q 972 68 1000 28 l 370 683 l 283 597 l 283 128 q 345 31 288 72 q 401 0 374 9 l 3 0 q 60 31 31 9 q 121 128 117 72 l 121 1261 q 60 1358 117 1317 q 3 1389 31 1379 l 401 1389 q 287 1282 308 1357 l 284 804 l 804 1317 q 811 1380 839 1362 q 776 1389 797 1389 l 1161 1389 q 884 1187 1031 1356 l 475 786 "},"l":{"ha":814,"x_min":3,"x_max":810,"o":"m 310 1293 q 308 139 308 237 l 313 1297 q 310 1293 311 1294 m 561 58 q 745 151 659 58 q 810 243 787 197 l 782 0 l 28 0 q 88 33 58 10 q 149 139 149 78 q 146 1293 149 237 q 3 1389 116 1356 l 454 1389 q 313 1297 351 1359 l 313 176 q 378 117 335 146 q 561 58 462 58 "},"m":{"ha":1742,"x_min":3,"x_max":1737,"o":"m 840 28 l 839 26 l 839 27 l 838 27 l 833 32 l 376 892 l 280 187 l 280 143 q 341 46 285 87 q 397 16 370 25 l 3 16 q 59 46 31 25 q 120 143 116 87 l 279 1389 l 838 260 l 1414 1373 l 1621 127 q 1682 30 1625 71 q 1737 0 1710 9 l 1344 0 q 1400 30 1371 9 q 1461 127 1457 71 l 1461 172 l 1301 861 l 840 28 "},"n":{"ha":1415,"x_min":3,"x_max":1412,"o":"m 1014 1389 l 1412 1389 q 1356 1358 1384 1379 q 1294 1261 1298 1317 l 1294 0 l 1293 1 l 1293 0 l 283 1048 l 283 128 q 345 31 288 72 q 401 0 374 9 l 3 0 q 60 31 31 9 q 121 128 117 72 l 121 1389 l 1132 328 l 1132 1261 q 1070 1358 1128 1317 q 1014 1389 1042 1379 "},"o":{"ha":1396,"x_min":3,"x_max":1392,"o":"m 821 1292 l 821 80 q 1078 223 978 113 q 1219 667 1219 378 q 1078 1124 1219 956 q 821 1292 978 1244 m 177 694 q 315 252 177 414 q 570 91 414 136 l 570 1295 q 315 1136 414 1250 q 177 694 177 975 m 725 1313 l 725 68 q 780 73 751 69 l 780 1303 q 725 1313 752 1310 m 656 72 l 656 1312 q 611 1305 633 1310 l 611 80 q 656 72 635 75 m 720 1388 q 1166 1192 960 1388 q 1392 667 1392 976 q 1159 169 1392 364 q 720 0 958 0 q 259 147 463 0 q 3 671 3 332 q 362 1314 3 1145 q 720 1388 541 1399 "},"p":{"ha":873,"x_min":3,"x_max":870,"o":"m 281 690 l 513 690 q 608 726 561 692 q 703 960 703 795 q 606 1242 703 1140 q 428 1326 526 1326 q 317 1320 330 1326 q 287 1234 287 1308 q 281 690 287 1126 m 654 644 q 593 618 645 631 q 281 593 490 593 l 281 127 q 342 30 286 71 q 399 0 371 9 l 3 0 q 60 30 31 9 q 121 127 117 71 l 121 1253 q 60 1350 117 1308 q 3 1380 31 1371 l 281 1380 q 573 1374 427 1404 q 865 1046 865 1314 q 846 922 870 997 q 654 644 798 772 "},"q":{"ha":1396,"x_min":3,"x_max":1392,"o":"m 780 73 l 821 80 q 1010 162 928 102 q 878 224 930 211 q 1101 252 981 328 q 1219 667 1219 404 q 1078 1124 1219 956 q 821 1292 978 1244 l 780 1303 q 725 1313 752 1310 l 656 1312 q 611 1305 633 1310 l 570 1295 q 315 1136 414 1250 q 177 694 177 975 q 315 252 177 414 q 570 91 414 136 l 611 80 q 656 72 635 75 l 725 68 q 780 73 758 70 m 1175 182 q 1306 61 1232 100 q 1369 39 1343 42 q 1276 1 1310 1 q 1124 80 1217 2 q 1082 113 1106 95 q 720 0 905 0 q 259 147 463 0 q 3 671 3 332 q 362 1314 3 1145 q 720 1388 541 1399 q 1166 1192 960 1388 q 1392 667 1392 976 q 1175 182 1392 376 "},"r":{"ha":1314,"x_min":3,"x_max":1311,"o":"m 281 690 l 513 690 q 608 726 561 692 q 703 960 703 795 q 606 1242 703 1140 q 428 1326 526 1326 q 317 1320 330 1326 q 287 1234 287 1308 q 281 690 287 1126 m 814 446 q 1021 186 932 273 q 1311 59 1179 32 q 1275 30 1305 45 q 1100 0 1217 0 q 817 200 983 0 q 673 401 733 300 q 585 496 647 449 q 281 593 460 593 l 281 127 q 342 30 286 71 q 399 0 371 9 l 3 0 q 60 30 31 9 q 121 127 117 71 l 121 1253 q 60 1350 117 1308 q 3 1380 31 1371 l 281 1380 q 573 1374 427 1404 q 865 1046 865 1314 q 846 922 870 997 q 654 644 798 772 q 814 446 724 579 "},"s":{"ha":712,"x_min":3,"x_max":709,"o":"m 36 345 q 134 142 36 212 q 303 89 208 89 q 475 146 389 89 q 575 308 575 213 q 495 503 575 401 q 300 694 444 567 q 110 886 161 819 q 33 1090 33 987 q 130 1297 33 1211 q 402 1389 235 1389 q 621 1362 547 1389 q 666 1336 659 1350 l 623 1096 q 574 1236 623 1167 q 407 1322 511 1322 q 233 1276 293 1322 q 175 1149 175 1231 q 412 818 175 1013 q 606 643 557 699 q 709 401 709 524 q 533 92 709 208 q 239 0 393 0 q 68 50 140 0 q 15 100 31 75 q 36 345 3 199 "},"t":{"ha":1090,"x_min":3,"x_max":1087,"o":"m 1035 1364 l 1087 1389 l 1035 1135 q 1013 1211 1032 1173 q 890 1286 974 1286 l 627 1286 l 627 1270 q 626 551 627 876 l 626 128 q 688 31 630 72 q 744 0 716 9 l 346 0 q 403 31 374 9 q 465 128 460 72 l 465 551 q 463 1270 464 876 l 463 1286 l 201 1286 q 77 1211 117 1286 q 56 1135 58 1173 l 3 1389 l 56 1364 l 1035 1364 "},"u":{"ha":1389,"x_min":3,"x_max":1385,"o":"m 992 1389 l 1385 1389 q 1331 1360 1359 1379 q 1270 1264 1274 1319 l 1270 649 q 1090 165 1270 348 q 711 0 930 0 q 310 143 475 0 q 109 654 109 319 l 109 1270 q 50 1367 98 1331 q 3 1389 26 1384 l 397 1389 q 341 1359 370 1379 q 280 1262 285 1318 l 279 844 l 278 676 q 565 88 278 172 l 604 78 q 649 71 627 73 l 715 66 q 769 71 747 68 l 809 78 q 1011 217 941 106 q 1100 649 1100 359 l 1100 1237 q 1046 1361 1100 1316 q 992 1389 1019 1383 "},"v":{"ha":1385,"x_min":3,"x_max":1381,"o":"m 979 1389 l 1381 1389 q 1334 1366 1359 1383 q 1274 1268 1284 1331 l 692 0 l 687 12 l 687 0 l 110 1268 q 50 1366 100 1331 q 3 1389 26 1383 l 406 1389 q 349 1358 377 1379 q 286 1261 290 1317 l 692 323 l 1099 1261 q 1037 1358 1095 1317 q 979 1389 1008 1379 "},"w":{"ha":2074,"x_min":3,"x_max":2070,"o":"m 1381 323 l 1121 924 l 1037 1134 l 954 924 l 692 323 l 286 1261 q 349 1358 290 1317 q 406 1389 377 1379 l 3 1389 q 50 1366 26 1383 q 110 1268 100 1331 l 687 0 l 687 12 l 692 0 l 1037 744 l 1381 0 l 1387 12 l 1387 0 l 1964 1268 q 2024 1366 1974 1331 q 2070 1389 2048 1383 l 1669 1389 q 1726 1358 1697 1379 q 1788 1261 1784 1317 l 1381 323 "},"x":{"ha":1137,"x_min":3,"x_max":1134,"o":"m 661 732 l 1026 121 q 1086 23 1037 58 q 1134 0 1111 5 l 764 0 q 851 129 844 38 l 658 419 l 568 574 l 479 419 l 286 129 q 349 31 290 72 q 406 0 377 9 l 3 0 q 51 23 26 5 q 111 121 100 58 l 484 721 l 192 1268 q 132 1366 181 1331 q 84 1389 106 1383 l 486 1389 q 429 1358 458 1379 q 367 1261 371 1317 l 576 884 l 576 882 l 577 884 l 770 1261 q 708 1358 766 1317 q 651 1389 680 1379 l 1053 1389 q 1006 1366 1030 1383 q 945 1268 956 1331 l 661 732 "},"y":{"ha":1125,"x_min":3,"x_max":1122,"o":"m 720 1389 l 1122 1389 q 1074 1366 1099 1383 q 1015 1268 1025 1331 l 644 678 l 644 128 q 705 31 648 72 q 762 0 734 9 l 363 0 q 420 31 391 9 q 481 128 477 72 l 481 672 l 110 1268 q 50 1366 100 1331 q 3 1389 26 1383 l 405 1389 q 348 1358 377 1379 q 286 1261 290 1317 l 563 792 l 840 1261 q 777 1358 836 1317 q 720 1389 749 1379 "},"z":{"ha":933,"x_min":3,"x_max":930,"o":"m 930 1389 l 878 1291 l 213 80 l 635 80 q 760 157 721 80 q 782 233 780 195 l 836 0 l 782 0 l 82 0 l 3 0 l 92 172 l 689 1309 l 262 1309 q 137 1232 176 1309 q 115 1156 117 1194 l 62 1389 l 930 1389 "}}}
